# xmcd
#
# Track frame offsets: 
#        150
#        19000
#        36987
#        54360
#
# Disc length: 1087 seconds
#
# Revision: 3
# Processed by: cddbd v1.5.2PL0 Copyright (c) Steve Scherf et al.
# Submitted via: ExactAudioCopy v0.95b3
#
DISCID=29043d04
DTITLE=Michael Jackson - HIStory - Ghost [CD1) [UK]
DYEAR=1997
DGENRE=Club
TTITLE0=HIStory [7" HIStory Lesson Edit]
TTITLE1=HIStory [Radio Edit]
TTITLE2=Ghosts [Radio Edit]
TTITLE3=Ghosts [Mousse T's Club Mix]
EXTD=
EXTT0=
EXTT1=
EXTT2=
EXTT3=
PLAYORDER=
